<svg width="171" height="24" viewBox="0 0 171 24" fill="none" xmlns="http://www.w3.org/2000/svg">
<path d="M0 23.296V0.416H7.616L10.4 10.432L11.712 15.648H11.776C12.3733 13.1307 12.8 11.392 13.056 10.432L15.872 0.416H23.552V23.296H18.368V11.776L18.464 7.2H18.4C17.8667 9.48267 17.5147 10.9013 17.344 11.456L14.048 23.296H9.376L6.112 11.488L5.056 7.2H4.992C5.056 9.65333 5.088 11.1893 5.088 11.808V23.296H0Z" fill="white"/>
<path d="M26.6875 23.296V0.416H44.0315V5.088H32.3515V9.184H42.3675V13.6H32.3515V18.496H44.2235V23.296H26.6875Z" fill="white"/>
<path d="M46.7812 23.296V0.416H52.4453V18.496H62.7173V23.296H46.7812Z" fill="white"/>
<path d="M63.5875 23.296L71.8115 0.416H77.6355L85.8915 23.296H79.9395L78.5955 19.168H70.5955L69.2835 23.296H63.5875ZM71.9075 15.104H77.2835L75.5555 9.568L74.6595 6.336H74.5955C74.2328 7.70133 73.9235 8.77867 73.6675 9.568L71.9075 15.104Z" fill="white"/>
<path d="M87.5 23.296V0.416H93.196L99.98 11.904L101.548 14.816H101.612C101.569 12.9813 101.548 11.7973 101.548 11.264V0.416H107.084V23.296H101.388L94.668 11.968L93.036 8.896H92.972C93.0147 10.8587 93.036 12.1067 93.036 12.64V23.296H87.5Z" fill="white"/>
<path d="M110.251 23.296V0.416H115.915V23.296H110.251Z" fill="white"/>
<path d="M128.182 23.84C125.089 23.84 122.625 23.1787 120.79 21.856C118.977 20.512 118.039 18.592 117.975 16.096H123.671C123.905 18.272 125.398 19.36 128.15 19.36C129.174 19.36 130.039 19.168 130.743 18.784C131.468 18.3787 131.831 17.7707 131.831 16.96C131.831 16.4053 131.606 15.9467 131.158 15.584C130.71 15.2 130.252 14.9333 129.783 14.784C129.335 14.6347 128.471 14.4 127.19 14.08C127.126 14.0587 127.084 14.048 127.062 14.048C127.041 14.0267 127.009 14.016 126.966 14.016C126.924 13.9947 126.881 13.984 126.839 13.984C125.857 13.7493 125.047 13.5467 124.407 13.376C123.788 13.184 123.073 12.9067 122.262 12.544C121.473 12.16 120.844 11.744 120.374 11.296C119.905 10.848 119.5 10.2613 119.159 9.536C118.839 8.78933 118.678 7.95733 118.678 7.04C118.678 4.69333 119.51 2.93333 121.174 1.76C122.86 0.586667 125.057 0 127.767 0C130.369 0 132.492 0.597333 134.135 1.792C135.799 2.98667 136.684 4.736 136.79 7.04H131.255C131.148 6.16533 130.775 5.49333 130.135 5.024C129.495 4.53333 128.641 4.288 127.575 4.288C126.593 4.288 125.793 4.49067 125.174 4.896C124.577 5.28 124.279 5.792 124.279 6.432C124.279 7.15733 124.641 7.69067 125.367 8.032C126.092 8.352 127.457 8.736 129.462 9.184C130.721 9.48267 131.756 9.78133 132.566 10.08C133.377 10.3573 134.199 10.7627 135.031 11.296C135.884 11.8293 136.513 12.5227 136.919 13.376C137.345 14.208 137.559 15.2107 137.559 16.384C137.559 18.7093 136.673 20.5333 134.902 21.856C133.153 23.1787 130.913 23.84 128.182 23.84Z" fill="white"/>
<path d="M139.875 23.296V0.416H145.539V9.088H153.571V0.416H159.235V23.296H153.571V13.76H145.539V23.296H139.875Z" fill="white"/>
<path d="M166.456 6.648L165.272 5.784L166.456 4.216L164.584 3.592L165.096 2.264L166.872 2.888V0.856001H168.376V2.888L170.152 2.264L170.664 3.592L168.792 4.216L169.976 5.784L168.824 6.648L167.64 4.984L166.456 6.648Z" fill="white"/>
</svg>
